# xmcd
#
# Track frame offsets:
#	150
#	19138
#	29315
#	43118
#	53094
#	66808
#	80849
#	93713
#	109242
#	121576
#	136900
#	157303
#	170972
#	184707
#	198627
#	215292
#	239242
#	251503
#	266053
#	284252
#	297239
#	309930
#	322290
#	333567
#
# Disc length: 4772 seconds
#
# Revision: 0
# Processed by: cddbd v1.5.2PL0 Copyright (c) Steve Scherf et al.
# Submitted via: audiograbber 1.83.01
#
DISCID=7d12a218
DTITLE=Various Artist - Longhaired Rednecks CD2
DYEAR=2018
DGENRE=Country
TTITLE0=Jerry Jeff Walker - Gettin' By
TTITLE1=Billie Joe Shaver - I Been to Georgia On A Fast Train
TTITLE2=Bobby Bare - Ride Me Down Easy
TTITLE3=Johnny Rodriguez - Ridin' My Thumb To Mexico
TTITLE4=Conway Twitty - You've Never Been This Far Before
TTITLE5=John Stewart - Anna On A Memory
TTITLE6=Willie Nelson - Bloody Mary Morning
TTITLE7=Mickey Newbury - Why You Been Gone So Long
TTITLE8=Tom T. Hall - Spokane Motel Blues
TTITLE9=Kinky Friedman - They Ain't Makin' Jews Like Jesus Anymore
TTITLE10=Jerry Jeff Walker and Lost Gonzo Band - Up Against Wall, Redneck Mother
TTITLE11=Moe Bandy - I Just Started Hatin' Cheatin' Songs Today
TTITLE12=Johnny Rodriguez - Music City Band
TTITLE13=Tanya Tucker - Blood Red And Going Down
TTITLE14=Waylon Jennings - Lonesome, On'ry And Mean
TTITLE15=David Allan Coe - You Never Even Called Me By My Name
TTITLE16=Mel Tillis - Sawmill
TTITLE17=Bobby Bare - Marie Laveau
TTITLE18=The Charlie Daniels Band - Long Haired Country Boy
TTITLE19=Moe Bandy - Honky Tonk Amnesia
TTITLE20=James Talley - W. Lee O'Daniel and the Light Crust Dough Boys
TTITLE21=Willie Nelson - Shotgun Willie
TTITLE22=Billie Joe Shaver - Willy the Wandering Gypsy And Me
TTITLE23=Kris Kristofferson - Broken Freedom Song
EXTD=
EXTT0=
EXTT1=
EXTT2=
EXTT3=
EXTT4=
EXTT5=
EXTT6=
EXTT7=
EXTT8=
EXTT9=
EXTT10=
EXTT11=
EXTT12=
EXTT13=
EXTT14=
EXTT15=
EXTT16=
EXTT17=
EXTT18=
EXTT19=
EXTT20=
EXTT21=
EXTT22=
EXTT23=
PLAYORDER=
